<?xml version="1.0" encoding="UTF-8"?>
<svg id="Layer_1" data-name="Layer 1" xmlns="http://www.w3.org/2000/svg" viewBox="0 0 526.43 216.48">
  <defs>
    <style>
      .cls-1 {
        fill: none;
        stroke: #001689;
        stroke-miterlimit: 10;
      }

      .cls-2 {
        fill: #fff;
      }

      .cls-2, .cls-3, .cls-4 {
        stroke-width: 0px;
      }

      .cls-3 {
        fill: #f18a00;
      }

      .cls-4 {
        fill: #001689;
      }
    </style>
  </defs>
  <path class="cls-2" d="M212.81,1.12l27.21,9.86c-43.1,1.92-130.36,13.61-130.36,13.61l32.2,10.42C53.55,49.35,1.04,65.45,1.04,65.45c0,0,33.43,27.46,69.46,47-10.71,4.1-33.25,12.21-33.25,12.21,0,0,39.06,25.12,85.6,39.72-3.25,2.24-15.92,12.61-15.92,12.61,0,0,33.01,18.75,80.39,31.25,60.5,15.96,77,2.29,77,2.29,0,0-1.12-1.24-2.18-3.5-.59-1.26-.88-2.51-.91-2.6,47.61,14.4,69.52-9.33,69.52-9.33,0,0-26.45-23.09-10.95-38.11,12-11.63,39.65-10.81,44.5-5.43,5.27,5.87,23.7,20.24,38.19,26.82,25.1,11.44,46.71,11.63,46.71,11.63,0,0,9.68-19.86-13.31-52.46-5.01-7.1-4.98-10.87-4.79-12.58.63-5.21,22.81-10.89,33.27-2.13,7.39,6.18-9.22,22.77-9.22,22.77,0,0,14.24,5.58,31.95.88,11.14-2.96,26.47-11.4,35.83-33.81,2.55-6.1,4.09-17.92,2.06-26.44-2.39-10-8.66-16.31-8.66-16.31,0,0-22.96-16.04-55.81-23.42,3.11-5.31,4.07-12.18,3.96-14.62-57.25,3.12-78-22.39-147.19-28.02C285.06,1.24,251.61-.48,212.81,1.12"/>
  <path class="cls-1" d="M212.81,1.12l27.21,9.86c-43.1,1.92-130.36,13.61-130.36,13.61l32.2,10.42C53.55,49.35,1.04,65.45,1.04,65.45c0,0,33.43,27.46,69.46,47-10.71,4.1-33.25,12.21-33.25,12.21,0,0,39.06,25.12,85.6,39.72-3.25,2.24-15.92,12.61-15.92,12.61,0,0,33.01,18.75,80.39,31.25,60.5,15.96,77,2.29,77,2.29,0,0-1.12-1.24-2.18-3.5-.59-1.26-.88-2.51-.91-2.6,47.61,14.4,69.52-9.33,69.52-9.33,0,0-26.45-23.09-10.95-38.11,12-11.63,39.65-10.81,44.5-5.43,5.27,5.87,23.7,20.24,38.19,26.82,25.1,11.44,46.71,11.63,46.71,11.63,0,0,9.68-19.86-13.31-52.46-5.01-7.1-4.98-10.87-4.79-12.58.63-5.21,22.81-10.89,33.27-2.13,7.39,6.18-9.22,22.77-9.22,22.77,0,0,14.24,5.58,31.95.88,11.14-2.96,26.47-11.4,35.83-33.81,2.55-6.1,4.09-17.92,2.06-26.44-2.39-10-8.66-16.31-8.66-16.31,0,0-22.96-16.04-55.81-23.42,3.11-5.31,4.07-12.18,3.96-14.62-57.25,3.12-78-22.39-147.19-28.02C285.06,1.24,251.61-.48,212.81,1.12Z"/>
  <path class="cls-4" d="M138.17,161.92c-1.69,1.33-8.69,6.53-12.1,10.41,29.03,17.99,102.52,45.14,130.43,33.9-1.92-4.62-2.07-9.3-1.29-12.97,19.23,13.32,55.63,9.32,66.95.05-43.72-48.9,32.88-60.01,45.68-46.98,33.2,33.85,75.94,36.32,75.94,36.32,0,0,4.62-17.34-13.47-42.23-13.35-18.36-.3-24.05-.3-24.05,4.96-2.75,25.38-9.98,38.12.37,10.26,8.35-3.12,24.42-3.12,24.42,0,0,34.57,7.4,51.07-31.2,8.3-18.61-5.92-36.03-5.92-36.03-25.1-15.89-50.47-21.35-60.68-22.98,6.47-7.01,6.89-12.36,6.89-12.36-47.21,1.53-76.84-20.17-120.39-25.61-48-6-81.48-4.03-81.48-4.03l16.94,7.89s-10.58.61-15.31.65c-42.74.26-110.09,10.84-110.09,10.84l26.89,8.5s-35.22,4.67-77.17,15.41c-22.35,5.73-68.96,17.82-68.96,17.82,0,0,24.37,24.09,60.11,43.09-13.18,5.41-27.26,11.48-27.26,11.48,0,0,29.45,22.2,78.5,37.3"/>
  <path class="cls-2" d="M396.03,73.98c2.49,6.1,3.5,17.36-19.83,22.32,8.8,2.89,20.3-1.24,26.68-10.05-.73,1.46.91-.27-.2,1.53-17.94,29.01-55.34,28.68-64.73,28.12-2.34-.27-4.66-.4-6.93-.39,0,0-14.1-16.74-3.85-8.94-88.34-42.22-29.73,9.79-58.82,28.94,0,0,14.05-18.21,48.02-23.19,0,0-52.17-3.86-98.14,31.65,27.57-27.57,59.99-37.09,80.52-39.92,12.31-1.14,20.08-.89,20.08-.89,0,0-3.53-.61-9.78-1.07-16.32-2.86-37.45-4.22-57-2.84-13.56.96-38.98,6.12-48.37,10.13,0,0,21.5-15.65,45.59-20.88,0,0-40.48,3.62-73.73,19.24-11.14,5.23-35.68,19.09-35.68,19.09,30.99-28.86,67.61-49.71,95.34-58.56,16.43-3.65,29.77-5.77,29.77-5.77,0,0-2.53-.01-7.21.26-12.02-.9-60.26-2.43-136.54,21.71,0,0,8.52-5.57,19.58-11.08,11.31-5.63,35.47-12.86,35.47-12.86-19.78.65-53.7,8.61-93.06,23.66,0,0,54.01-35.34,134.31-48.09.71-.04,1.11-.07,1.11-.07,0,0-9.97-1.66-20.97-3.05-8.11-1.02-20.07-2.94-20.07-2.94,0,0,39.88-9.18,99.52-10.25,16.82-.31,25.91-.03,25.91-.03-3.29-1.38-17.19-5.06-21.03-6.91,44.54-.24,63.4,4.88,95.9,16.87,28.98,10.69,29.87,14.63,66.42,15.88,0,0-16.89,19.26-45.36,15.95-4.92-.57-10.12-2.23-15.21-4.13-11.98-5.04-13.97-15.33-27.29-16.82,3.11,2.65,7.59,5.72,9.98,10-8.17-4.26-22.12-8.3-35.95-9.35-35.17-2.7-54.56,3.47-54.56,3.47.81-.11,1.61-.2,2.41-.28,44.74-3.02,60.8,14.12,62.04,16.14,2.66,4.35-16.2,1.03-28.17,5.26,13.96-1.71,29.16,3.33,39.89,12.53,4.54,3.9,7.99,9.21,16.03,10.69,2.4.68,5.32,1.09,8.85.95,9.55-.34,15.63-6.8,16.85-8.93"/>
  <path class="cls-3" d="M372.94,64.74c-2.47,1.6-4.12,3.93-4.34,6.68-.43,5.38,4.86,10.18,11.82,10.72,6.96.53,12.94-3.41,13.37-8.8.06-.68.01-1.34-.11-1.99.37,0-.41-.09-.05-.08"/>
  <path class="cls-3" d="M370.95,70.97c-.32,4.03,3.8,7.64,9.17,8.06,5.37.42,10.01-2.52,10.33-6.56.05-.61-.04-1.22-.19-1.81,1.07.16,2.14.27,3.21.34.13.69.18,1.39.12,2.11-.45,5.71-6.77,9.87-14.13,9.31-7.35-.57-12.95-5.65-12.49-11.34.23-2.9,1.97-5.37,4.59-7.06,1.02.49,2.2,1.02,3.45,1.59-2.29,1.17-3.86,3.08-4.05,5.36"/>
  <path class="cls-3" d="M434.12,79.83c3.43-.61,10.36-2.9,5-5.98,0,0-4.94-.17-11.49-.28-1.32,2.95-3.01,5.39-8.82,9,0,0,12.52-2.25,15.31-2.73M414.42,71.78c8.97-1.49,18.51-7.08,23.23-11.26,8.43,1.21,35.84-.36,62.34,16.84,7.28,6.42,7.76,19.62,7.24,27.1-2.98,28.72-31.16,32.65-31.16,32.65,0,0,28.62-34.53-22.43-38.77-16.29-1.35-53.79,10.17-71.16,27.1-1.43,1.52-2.83,4.15-2.49,4.48,7.36,9.45,30.69,34.61,49.24,35.84,2.18-15.57-32.06-31.81-11.15-43.46,0,0-1.23,10.91,6.59,20.86,3.43,4.37,13.2,15.72,13.96,32.11,0,0-42.21-3.29-74.2-43.41-3.45-3.81-6.17-7.14-9.77-9.58,50-4.3,59.76-50.5,59.76-50.5"/>
  <path class="cls-4" d="M381.46,78.4c3.77,0,6.83-3.06,6.83-6.83s-3.06-6.83-6.83-6.83-6.83,3.06-6.83,6.83,3.06,6.83,6.83,6.83"/>
  <path class="cls-2" d="M342.55,134.97s-16.59-3.08-35.43,10.41c-27.9,19.92-17.54,38.6-17.54,38.6,0,0-16.56.91-29.42-7.65,0,0,4.5-12.42,18.62-22.85,36.8-27.19,63.77-18.5,63.77-18.5"/>
  <path class="cls-2" d="M246.48,23.67s-51.44.29-82.5,6.41c0,0,25.43,5.24,28.05,8.44,0,0-93.23,11.26-136.04,36.98,0,0,19.3,15.26,43.73,26.69,0,0,95.8-36.93,110.36-34.85,0,0-98.03,32.61-119.39,55.91,0,0,24.7,23.59,47.17,23.3,0,0,84.06-51.49,129.24-43.68,0,0-75.37,9.51-114.39,62.41,0,0,24.46,15.78,59.11,24.15,0,0,8.74-65.59,122.01-60.35,0,0-1.16-4.46-16.6-11.11,0,0,58.27.17,69.33-16.28L246.48,23.67Z"/>
  <path class="cls-2" d="M385.12,72.72c.8,0,1.46-.65,1.46-1.46s-.65-1.46-1.46-1.46-1.46.65-1.46,1.46.65,1.46,1.46,1.46"/>
  <path class="cls-4" d="M337.36,69.8s5.72,1.61,5.72,12.38-2-3.73,13.35,0l6.62-3.79-9.63-8.59h-16.05Z"/>
</svg>